<?xml version="1.0" encoding="utf-8"?>
<!-- Generator: Adobe Illustrator 19.2.1, SVG Export Plug-In . SVG Version: 6.00 Build 0)  -->
<svg version="1.1" id="Layer_1" xmlns="http://www.w3.org/2000/svg" xmlns:xlink="http://www.w3.org/1999/xlink" x="0px" y="0px"
	 viewBox="0 0 18 14" style="enable-background:new 0 0 18 14;" xml:space="preserve">
<style type="text/css">
	.st0{fill-rule:evenodd;clip-rule:evenodd;fill:#FFFFFF;}
</style>
<g>
	<path class="st0" d="M1.3,0h15.4C17.4,0,18,0.6,18,1.3c0,0.7-0.6,1.3-1.3,1.3H1.3C0.6,2.6,0,2,0,1.3C0,0.6,0.6,0,1.3,0z"/>
	<path class="st0" d="M1.3,5.7h15.4C17.4,5.7,18,6.3,18,7c0,0.7-0.6,1.3-1.3,1.3H1.3C0.6,8.3,0,7.7,0,7C0,6.3,0.6,5.7,1.3,5.7z"/>
	<path class="st0" d="M1.3,11.4h15.4c0.7,0,1.3,0.6,1.3,1.3c0,0.7-0.6,1.3-1.3,1.3H1.3C0.6,14,0,13.4,0,12.7C0,12,0.6,11.4,1.3,11.4
		z"/>
</g>
</svg>
